<svg width="550" height="550" viewBox="0 0 550 550" fill="none" xmlns="http://www.w3.org/2000/svg">
<path d="M295.388 241.377C287.071 241.377 279.095 238.073 273.214 232.192C267.333 226.311 264.029 218.335 264.029 210.018C264.029 201.702 267.333 193.725 273.214 187.844C279.095 181.964 287.071 178.66 295.388 178.66C321.716 178.631 346.956 168.16 365.573 149.544C384.189 130.928 394.662 105.687 394.692 79.3598C394.692 71.043 397.996 63.0667 403.878 57.1858C409.757 51.3049 417.734 48.001 426.05 48.001C434.368 48.001 442.345 51.3049 448.224 57.1858C454.106 63.0667 457.41 71.043 457.41 79.3598C457.36 122.315 440.275 163.497 409.901 193.871C379.526 224.245 338.344 241.329 295.388 241.377Z" fill="#20893B"/>
<path d="M122.361 502.701C114.044 502.701 106.067 499.397 100.186 493.515C94.305 487.634 91.001 479.659 91.001 471.341C91.0493 428.385 108.135 387.203 138.509 356.828C168.884 326.454 210.067 309.369 253.023 309.322C261.339 309.322 269.316 312.625 275.197 318.507C281.077 324.386 284.381 332.363 284.381 340.681C284.381 348.997 281.077 356.974 275.197 362.854C269.316 368.735 261.339 372.039 253.023 372.039C226.695 372.069 201.454 382.54 182.837 401.156C164.221 419.773 153.748 445.013 153.718 471.341C153.718 479.657 150.415 487.634 144.534 493.515C138.654 499.397 130.678 502.701 122.361 502.701Z" fill="#20893B"/>
<path d="M295.388 502.701C287.116 502.632 279.206 499.298 273.381 493.425C267.556 487.552 264.288 479.614 264.288 471.341C264.288 463.07 267.556 455.132 273.381 449.259C279.206 443.386 287.116 440.052 295.388 439.983C308.429 439.983 321.343 437.414 333.389 432.425C345.438 427.434 356.384 420.119 365.606 410.899C374.828 401.677 382.141 390.729 387.132 378.683C392.123 366.634 394.69 353.72 394.69 340.679C394.69 327.638 392.123 314.727 387.132 302.678C382.141 290.631 374.828 279.683 365.606 270.461C356.384 261.241 345.438 253.926 333.389 248.936C321.343 243.945 308.429 241.377 295.388 241.377C287.071 241.377 279.095 238.073 273.214 232.192C267.333 226.311 264.029 218.335 264.029 210.018C264.029 201.701 267.333 193.725 273.214 187.844C279.095 181.963 287.071 178.659 295.388 178.659C316.715 178.582 337.846 182.715 357.571 190.823C377.298 198.93 395.229 210.852 410.335 225.905C425.442 240.958 437.431 258.845 445.61 278.541C453.788 298.236 458 319.353 458 340.679C458 362.006 453.788 383.124 445.61 402.819C437.431 422.514 425.442 440.402 410.335 455.454C395.229 470.508 377.298 482.43 357.571 490.538C337.846 498.646 316.715 502.778 295.388 502.701Z" fill="url(#paint0_linear)"/>
<path d="M253.023 372.039C210.053 372.039 168.842 354.969 138.458 324.584C108.073 294.201 91.0034 252.99 91.0034 210.019C91.0034 167.049 108.073 125.839 138.458 95.4544C168.842 65.0698 210.053 48 253.023 48C261.34 48 269.316 51.3039 275.197 57.1848C281.078 63.0657 284.382 71.0419 284.382 79.3587C284.382 87.6755 281.078 95.6517 275.197 101.533C269.316 107.414 261.34 110.717 253.023 110.717C239.982 110.717 227.07 113.286 215.022 118.276C202.974 123.267 192.027 130.581 182.806 139.802C173.585 149.023 166.27 159.97 161.28 172.018C156.289 184.066 153.721 196.979 153.721 210.019C153.721 223.06 156.289 235.973 161.28 248.021C166.27 260.068 173.585 271.015 182.806 280.237C192.027 289.457 202.974 296.772 215.022 301.763C227.07 306.752 239.982 309.322 253.023 309.322C261.34 309.322 269.316 312.625 275.197 318.507C281.078 324.386 284.382 332.363 284.382 340.679C284.382 348.997 281.078 356.974 275.197 362.854C269.316 368.735 261.34 372.039 253.023 372.039Z" fill="url(#paint1_linear)"/>
<path d="M140.723 354.669C124.993 369.757 112.48 387.87 103.935 407.922C95.3896 427.973 90.9901 449.544 91.0011 471.341C90.9668 475.482 91.7527 479.586 93.3132 483.422C94.8738 487.256 97.1782 490.744 100.094 493.683C103.009 496.624 106.477 498.957 110.299 500.548C114.121 502.14 118.22 502.96 122.36 502.96C126.5 502.96 130.599 502.14 134.421 500.548C138.242 498.957 141.711 496.624 144.626 493.683C147.541 490.744 149.846 487.256 151.406 483.422C152.967 479.586 153.753 475.482 153.718 471.341C153.727 454.473 158.032 437.884 166.227 423.139C174.422 408.394 186.238 395.98 200.56 387.067C178.544 380.63 158.147 369.585 140.723 354.669Z" fill="#20893B"/>
<defs>
<linearGradient id="paint0_linear" x1="361.015" y1="502.702" x2="361.015" y2="178.658" gradientUnits="userSpaceOnUse">
<stop stop-color="#03813F"/>
<stop offset="1" stop-color="#FBC01C"/>
</linearGradient>
<linearGradient id="paint1_linear" x1="187.692" y1="372.039" x2="187.692" y2="48" gradientUnits="userSpaceOnUse">
<stop stop-color="#03813F"/>
<stop offset="1" stop-color="#FBC01C"/>
<stop offset="1" stop-color="#FBE51C"/>
</linearGradient>
</defs>
</svg>
